#format: frame checksums
#version: 2
#hash: MD5
#tb 0: 1/25
#media_type 0: video
#codec_id 0: h264
#dimensions 0: 352x288
#sar 0: 0/1
#stream#, dts,        pts, duration,     size, hash
0,         -1,          0,        1,    91680, 85511794c4f5d46d0c791013a98c0c18
0,          0,          1,        1,    81455, b5c374a5192a5584d9bf09f5618e9bbf
0,          1,          2,        1,    70630, a4cfa595e484c0149fdeb5bd0d039c8b
0,          2,          3,        1,    60454, 908bd11247ddc645bff20c8585f9c0c7
0,          3,          4,        1,    49975, c928bd7f109aa80bca750a37e0043817
0,          4,          5,        1,    44737, 6f63c928d88adbde8f6abca35fbc2139
0,          5,          6,        1,    42113, 4b7c413f10425dc854bef6a3071a8b74
0,          6,          7,        1,    39710, b411a86a53330a1c9574e4fd5868737d
0,          7,          8,        1,    39789, cdbc32b59ba829a4f923726f7b5923c3
0,          8,          9,        1,    37577, 38454f41f646d8f0634de8f5fb884497
0,          9,         10,        1,    34868, 054539c008ce147b2649bf0ea6fce721
0,         10,         11,        1,    35290, aa155c7df04160f21897705d27bd1274
0,         11,         12,        1,    33320, 5de7ea5125d15fe587ff9b283e6cee0f
0,         12,         13,        1,    33681, c762afa7d6fb5af106f6d8590e6758ea
0,         13,         14,        1,    33981, 07f1e1e108fbecd8aad2d6a24d1da6d7
0,         14,         15,        1,    34297, 91b0db9391cf9e760b18b9d6193222f2
0,         15,         16,        1,    34616, 120514c04a053a3e7be29a651ddfc2d9
0,         16,         17,        1,    34927, 191dba4cdb4af04d0225cea8ed0eb5ad
0,         17,         18,        1,    35394, 6fe9dd2f4bc6799b285eebbb95161796
0,         18,         19,        1,    35830, 9952c293489d38683f34f0a257cd0d99
0,         19,         20,        1,    33938, 5d6f512f48b17903d43f5e0b85c6900c
0,         20,         21,        1,    34482, bbc045131ac9c9342788179664a476e1
0,         21,         22,        1,    34751, 4e20fbcb37847b4c5cc88f0cbe9b4ec9
0,         22,         23,        1,    35266, c725c79be398b1ca5f481e899596c864
0,         23,         24,        1,    35484, 71602245740fb35b59d5d554c46756fc
0,         24,         25,        1,    35743, afe6c04e5ffe493a45e1e0998dd8f167
0,         25,         26,        1,    36044, b6efd4a977c60769fb342c9f554253f1
0,         26,         27,        1,    33533, 3a0ad98e15b6a6b9243db46ff02fb1fa
0,         27,         28,        1,    33682, d2f99383c0aa44f2d881fb9582d273af
0,         28,         29,        1,    33903, ae39c38ff591058c23ab4555ef164570
0,         29,         30,        1,    34239, 794091244a5f5b6e37ad25ad888dee70
0,         30,         31,        1,    34373, 82d7ac5022a5beab9a7873824ff126cc
0,         31,         32,        1,    34625, e9e42650e100ed9661dd7c0f26375fc3
0,         32,         33,        1,    34842, 08bc0eb535d6da50eb0257139d0a973f
0,         33,         34,        1,    35087, 8cf084250a11d9acdc02d19dda92b654
0,         34,         35,        1,    33078, 8ec2f974686ece24e5305a14d22906b4
0,         35,         36,        1,    30994, 2e4c9170343ce337590519df64421f8b
0,         36,         37,        1,    31198, a31a47f7456813cf43e6f4aff1b700fc
0,         37,         38,        1,    31375, 7c0b23a5621f5df6cbe869a3274f76bd
0,         38,         39,        1,    31532, 88e13b38a76e0743ff5ae7911f5ae578
0,         39,         40,        1,    31715, 3aa3905d7ac730d520b6431d371dcb0f
0,         40,         41,        1,    31961, 575187d92a29644acb014c430cbaa30b
0,         41,         42,        1,    32169, d209350b1dda6412a9016b4c86f5be8e
0,         42,         43,        1,    32252, 208e2911bc9d0b2e15d49a30b9c78e56
0,         43,         44,        1,    32277, f5471a8986cfa4ca3b3bf998f8535c65
0,         44,         45,        1,    32347, e4a65874eebd702c31c1bcb8e885ad5c
0,         45,         46,        1,    29623, a837735b94c91bd3a1fa4039d7fddede
0,         46,         47,        1,    29682, 10c6fbcab76b0a4f6a1ddc2288d6644d
0,         47,         48,        1,    29626, 384ea6fbfb59e8fd43e081361d8c5fa1
0,         48,         49,        1,    29684, 602474f73f75e9b9fc37decd1314b26f
